<svg width="12" height="12" viewBox="0 0 12 12" fill="none" xmlns="http://www.w3.org/2000/svg">
<path d="M10.4201 2.32447C10.1647 2.06897 9.86147 1.86629 9.52774 1.72801C9.19401 1.58973 8.8363 1.51855 8.47506 1.51855C8.11382 1.51855 7.75611 1.58973 7.42238 1.72801C7.08865 1.86629 6.78544 2.06897 6.53006 2.32447L6.00006 2.85447L5.47006 2.32447C4.95421 1.80862 4.25458 1.51882 3.52506 1.51882C2.79554 1.51882 2.09591 1.80862 1.58006 2.32447C1.06421 2.84031 0.774414 3.53995 0.774414 4.26947C0.774414 4.99898 1.06421 5.69862 1.58006 6.21447L2.11006 6.74447L6.00006 10.6345L9.89006 6.74447L10.4201 6.21447C10.6756 5.95909 10.8782 5.65588 11.0165 5.32215C11.1548 4.98842 11.226 4.63071 11.226 4.26947C11.226 3.90822 11.1548 3.55052 11.0165 3.21679C10.8782 2.88306 10.6756 2.57985 10.4201 2.32447Z" stroke="#797A79" stroke-linecap="round" stroke-linejoin="round"/>
</svg>
